<?xml version="1.0" standalone="no"?>
<!DOCTYPE svg PUBLIC "-//W3C//DTD SVG 20010904//EN"
 "http://www.w3.org/TR/2001/REC-SVG-20010904/DTD/svg10.dtd">
<svg version="1.0" xmlns="http://www.w3.org/2000/svg"
 width="1217.000000pt" height="639.000000pt" viewBox="0 0 1217.000000 639.000000"
 preserveAspectRatio="xMidYMid meet">

<g transform="translate(0.000000,639.000000) scale(0.100000,-0.100000)"
fill="#000000" stroke="none">
<path d="M5910 4619 c-487 -62 -913 -368 -1125 -806 -54 -112 -88 -211 -117
-347 -32 -147 -32 -426 1 -576 125 -579 550 -1004 1131 -1131 88 -19 135 -22
285 -22 195 0 298 15 461 69 397 132 734 448 884 831 131 333 140 688 25 1022
-150 440 -538 800 -990 921 -167 44 -391 60 -555 39z m312 -509 c181 -26 371
-119 508 -247 163 -153 261 -344 291 -569 55 -412 -192 -827 -582 -983 -130
-52 -200 -65 -354 -65 -114 0 -156 5 -225 23 -339 90 -594 346 -686 686 -29
109 -27 362 4 470 131 457 580 752 1044 685z"/>
<path d="M10 4556 c0 -3 71 -128 158 -278 177 -304 476 -821 1002 -1733 193
-335 368 -638 388 -672 20 -35 39 -60 43 -55 9 8 115 191 549 942 649 1123
855 1481 941 1628 49 84 89 157 89 163 0 5 -304 9 -790 9 l-790 0 0 -255 0
-255 350 0 c193 0 350 -3 350 -6 0 -3 -31 -58 -68 -122 -83 -140 -471 -814
-555 -962 -33 -58 -65 -111 -71 -117 -9 -10 -34 26 -105 150 -52 89 -124 214
-161 277 -37 63 -219 379 -405 703 l-339 587 -293 0 c-161 0 -293 -2 -293 -4z"/>
<path d="M3387 4553 c-4 -3 -7 -118 -7 -255 l0 -248 255 0 255 0 2 -1122 3
-1123 253 -3 252 -2 0 1380 0 1380 -503 0 c-277 0 -507 -3 -510 -7z"/>
<path d="M7775 4548 c-3 -7 -4 -627 -3 -1378 l3 -1365 508 -3 507 -2 0 255 0
255 -27 0 c-16 0 -129 2 -253 3 l-225 2 -3 1123 -2 1122 -250 0 c-191 0 -252
-3 -255 -12z"/>
<path d="M10502 4428 c-38 -68 -92 -161 -119 -208 -27 -47 -94 -161 -148 -255
-159 -275 -721 -1249 -803 -1390 -41 -71 -100 -173 -130 -225 -30 -52 -113
-195 -183 -317 -71 -122 -129 -224 -129 -227 0 -3 357 -5 793 -4 l792 3 3 235
c2 129 1 244 -2 255 -5 20 -12 20 -351 17 -219 -2 -345 1 -345 7 0 6 49 95
108 198 613 1065 584 1017 601 995 9 -11 98 -164 199 -339 100 -175 319 -554
485 -843 l303 -525 292 -3 c161 -1 292 2 292 6 0 5 -112 202 -248 438 -410
707 -841 1454 -1085 1879 -127 220 -235 406 -242 413 -10 11 -26 -11 -83 -110z"/>
</g>
</svg>
