<svg xmlns="http://www.w3.org/2000/svg" width="1622.667" height="852" viewBox="0 0 1217 639" preserveAspectRatio="xMidYMid meet" xmlns:v="https://vecta.io/nano"><path d="M591 177.1c-48.7 6.2-91.3 36.8-112.5 80.6-5.4 11.2-8.8 21.1-11.7 34.7-3.2 14.7-3.2 42.6.1 57.6 12.5 57.9 55 100.4 113.1 113.1 8.8 1.9 13.5 2.2 28.5 2.2 19.5 0 29.8-1.5 46.1-6.9 39.7-13.2 73.4-44.8 88.4-83.1 13.1-33.3 14-68.8 2.5-102.2-15-44-53.8-80-99-92.1-16.7-4.4-39.1-6-55.5-3.9zm31.2 50.9c18.1 2.6 37.1 11.9 50.8 24.7 16.3 15.3 26.1 34.4 29.1 56.9 5.5 41.2-19.2 82.7-58.2 98.3-13 5.2-20 6.5-35.4 6.5-11.4 0-15.6-.5-22.5-2.3-33.9-9-59.4-34.6-68.6-68.6-2.9-10.9-2.7-36.2.4-47 13.1-45.7 58-75.2 104.4-68.5zM1 183.4c0 .3 7.1 12.8 15.8 27.8L117 384.5l38.8 67.2c2 3.5 3.9 6 4.3 5.5.9-.8 11.5-19.1 54.9-94.2l94.1-162.8c4.9-8.4 8.9-15.7 8.9-16.3 0-.5-30.4-.9-79-.9h-79v25.5V234h35c19.3 0 35 .3 35 .6s-3.1 5.8-6.8 12.2L167.7 343c-3.3 5.8-6.5 11.1-7.1 11.7-.9 1-3.4-2.6-10.5-15L134 312l-40.5-70.3L59.6 183H30.3l-29.3.4zm337.7.3c-.4.3-.7 11.8-.7 25.5V234h25.5H389l.2 112.2.3 112.3 25.3.3 25.2.2V321 183h-50.3l-51 .7zm438.8.5c-.3.7-.4 62.7-.3 137.8l.3 136.5 50.8.3 50.7.2v-25.5V408h-2.7c-1.6 0-12.9-.2-25.3-.3l-22.5-.2-.3-112.3L828 183h-25c-19.1 0-25.2.3-25.5 1.2zm272.7 12l-11.9 20.8-14.8 25.5-80.3 139-13 22.5-18.3 31.7-12.9 22.7c0 .3 35.7.5 79.3.4l79.2-.3.3-23.5c.2-12.9.1-24.4-.2-25.5-.5-2-1.2-2-35.1-1.7-21.9.2-34.5-.1-34.5-.7s4.9-9.5 10.8-19.8c61.3-106.5 58.4-101.7 60.1-99.5.9 1.1 9.8 16.4 19.9 33.9l48.5 84.3 30.3 52.5 29.2.3c16.1.1 29.2-.2 29.2-.6 0-.5-11.2-20.2-24.8-43.8l-108.5-187.9-24.2-41.3c-1-1.1-2.6 1.1-8.3 11z"/></svg>
